# xmcd
#
# Track frame offsets:
#  150
#  12780
#  26461
#  37154
#  50578
#  63688
#  76414
#  88445
#  100211
#  112242
#  126669
#  137613
#
# Disc length: 1947 seconds
#
# Revision: 0
# Processed by: cddbd v1.5.1PL0 Copyright (c) Steve Scherf et al.
# Submitted via: Collectorz.com_Music_Collector 6.9
#
DISCID=b007990c
DTITLE=The Original Hit Performances - All-Time Country And Western  Vol. 3
DYEAR=1900
DGENRE=Country/Oldies
TTITLE0=Pierce, Webb - Back Street Affair
TTITLE1=Tubb, Ernest - Filipino Baby
TTITLE2=Wells, Kitty - A Wedding Ring Ago
TTITLE3=T. Texas Tyler - Bumming Around
TTITLE4=Red Foley and Betty Foley - A Satisfied Mind
TTITLE5=Bob Wills and His Texas Playboys - San Antonio Rose
TTITLE6=Foley, Red - Tennessee Saturday Night
TTITLE7=Roy Acuff and Kitty Wells - Goodbye Mr. Brown
TTITLE8=Jimmie Davis and The Anita Kerr Singers - Supper-Time
TTITLE9=Jenny Lou Carson - Jealous Heart
TTITLE10=The Wilburn Brothers (Doyle and Teddy) - Cry Baby Cry
TTITLE11=Monroe, Bill - Scotland
EXTD=
EXTT0=
EXTT1=
EXTT2=
EXTT3=
EXTT4=
EXTT5=
EXTT6=
EXTT7=
EXTT8=
EXTT9=
EXTT10=
EXTT11=
PLAYORDER=
